<?xml version="1.0" standalone="no"?>
<!DOCTYPE svg PUBLIC "-//W3C//DTD SVG 20010904//EN"
 "http://www.w3.org/TR/2001/REC-SVG-20010904/DTD/svg10.dtd">
<svg version="1.0" xmlns="http://www.w3.org/2000/svg"
 width="1024.000000pt" height="1024.000000pt" viewBox="0 0 1024.000000 1024.000000"
 preserveAspectRatio="xMidYMid meet">
<metadata>
Created by potrace 1.15, written by Peter Selinger 2001-2017
</metadata>
<g transform="translate(0.000000,1024.000000) scale(0.100000,-0.100000)"
fill="#000000" stroke="none">
<path d="M4635 9959 c-259 -31 -493 -146 -609 -299 -88 -118 -111 -277 -56
-395 68 -143 266 -261 528 -314 l87 -18 -110 -7 c-109 -7 -280 4 -367 23 -193
43 -325 145 -364 279 -61 208 76 486 316 641 l63 41 -52 0 c-175 0 -448 -98
-627 -226 -221 -157 -324 -299 -324 -446 0 -161 138 -272 442 -354 73 -20 139
-40 146 -43 19 -11 -140 -53 -221 -59 -132 -10 -313 56 -407 148 -31 30 -63
76 -83 117 -29 62 -32 76 -32 168 0 94 2 104 36 176 20 42 54 96 75 120 84 96
82 86 16 82 -155 -10 -293 -83 -386 -207 -101 -133 -119 -292 -50 -435 60
-123 241 -263 409 -317 107 -35 273 -43 396 -20 47 9 89 16 92 16 4 0 7 -170
7 -379 l0 -378 -77 -28 c-43 -15 -99 -38 -124 -51 -96 -48 -259 -166 -354
-256 -370 -350 -594 -803 -670 -1358 -21 -153 -32 -544 -16 -563 9 -11 0 -48
-43 -170 -30 -86 -60 -165 -65 -176 -8 -15 -30 -22 -97 -31 -95 -14 -130 -35
-120 -73 5 -21 49 -256 142 -752 25 -132 55 -292 68 -355 l22 -115 39 -3 c39
-4 258 13 321 24 31 6 32 4 39 -35 3 -22 12 -45 19 -50 9 -7 57 -7 152 -1 235
16 243 18 266 54 16 26 18 42 14 101 -9 110 -264 1323 -287 1366 -14 27 -48
32 -95 15 -23 -8 -101 -20 -175 -26 -115 -11 -137 -16 -152 -34 l-18 -21 11
24 c20 39 70 193 71 215 0 12 3 15 6 9 5 -14 69 -18 77 -5 3 4 10 87 15 183
35 563 193 1021 468 1351 56 68 110 118 126 118 3 0 -8 -28 -25 -62 -119 -246
-187 -645 -160 -941 13 -145 38 -272 74 -387 l24 -75 35 3 c63 7 124 52 178
132 53 80 78 181 91 370 12 172 26 246 68 353 30 77 102 206 126 226 19 16
220 -25 616 -124 625 -157 871 -193 1260 -182 408 11 750 93 1081 259 86 43
161 78 167 78 17 0 90 -113 138 -214 56 -118 79 -209 99 -381 28 -252 60 -340
159 -442 63 -64 135 -98 157 -76 15 15 45 142 64 268 19 130 22 423 5 565 -18
154 -58 336 -105 475 -24 71 -42 132 -39 134 15 16 191 -198 267 -326 174
-289 288 -699 303 -1087 7 -174 8 -184 36 -188 17 -2 29 -22 59 -98 21 -52 38
-101 38 -107 1 -19 -168 -16 -254 3 -119 27 -132 28 -143 7 -11 -19 -183 -860
-247 -1203 -30 -160 -35 -201 -26 -230 21 -69 21 -69 211 -90 96 -11 180 -20
187 -20 22 0 43 31 43 65 0 19 3 36 8 38 8 5 141 -8 147 -14 3 -4 -45 -347
-64 -453 -6 -31 -5 -55 1 -65 7 -11 2 -62 -17 -165 -53 -299 -129 -593 -225
-865 -28 -79 -75 -226 -106 -328 -30 -101 -77 -243 -104 -316 -84 -225 -101
-302 -107 -472 -9 -237 29 -421 126 -613 72 -143 203 -295 288 -335 26 -12 53
5 53 32 0 9 -30 57 -66 106 -140 192 -230 382 -270 569 -8 39 -14 124 -15 196
0 162 24 282 96 479 29 81 78 231 109 332 30 101 75 241 101 309 100 272 211
714 249 990 6 38 11 48 34 56 l28 11 32 239 c41 303 38 287 65 280 12 -3 28
-2 34 2 10 7 213 1178 213 1232 0 32 -26 47 -109 60 -44 7 -85 17 -90 24 -5 6
-36 81 -69 167 -59 154 -59 156 -49 215 18 104 14 503 -6 634 -71 456 -252
830 -556 1144 -105 108 -256 234 -366 304 -70 45 -285 154 -363 184 l-42 16 2
354 3 353 25 -2 c14 -2 102 -6 195 -9 135 -5 185 -3 245 10 165 35 296 130
361 262 45 91 52 205 19 304 -52 156 -190 301 -401 423 -98 56 -294 123 -416
142 l-43 7 35 -58 c72 -119 125 -304 125 -433 -1 -174 -79 -329 -197 -393 -93
-50 -198 -56 -298 -18 l-30 11 50 18 c88 31 138 62 197 122 120 120 155 279
97 448 -28 79 -65 138 -133 210 -135 141 -314 226 -556 266 -137 22 -470 19
-470 -4 0 -4 15 -15 34 -25 43 -23 158 -138 198 -197 74 -109 141 -270 174
-421 19 -83 25 -351 9 -366 -10 -10 -190 -1 -200 10 -3 3 0 29 6 59 15 69 5
230 -20 324 -66 253 -240 480 -446 581 -74 36 -106 46 -180 54 -103 11 -219
11 -320 -1z m871 -1109 c196 -9 381 -24 567 -46 l57 -7 0 -490 0 -490 -87 6
c-199 15 -951 19 -1268 8 -322 -11 -586 -25 -712 -37 l-63 -6 0 494 0 495 93
12 c200 26 554 53 852 64 173 7 356 6 561 -3z m309 -1109 l100 -6 -72 -8
c-195 -20 -548 -99 -838 -187 -189 -58 -171 -57 -430 -25 -426 52 -869 12
-1152 -103 -31 -13 -53 -17 -53 -11 0 17 65 110 117 166 l48 53 210 30 c361
51 639 74 1070 89 270 10 864 11 1000 2z m243 -153 c-139 -199 -415 -397 -668
-478 -167 -53 -277 -71 -490 -77 -188 -5 -331 6 -460 36 -34 8 -33 8 25 15
381 43 592 93 885 208 135 53 590 275 690 336 59 37 64 26 18 -40z m559 -230
c-172 -241 -501 -377 -955 -394 l-157 -5 89 31 c192 67 420 195 546 308 l55
49 118 12 c65 7 168 25 230 40 62 15 114 26 116 25 2 -2 -17 -31 -42 -66z
m1163 -2098 c43 -2 43 -3 -54 -493 -51 -262 -99 -484 -106 -492 -7 -8 -22 -13
-34 -10 -11 2 -72 16 -135 30 -63 13 -116 26 -118 29 -2 2 9 71 26 152 48 239
150 733 157 760 6 22 11 24 63 25 31 0 65 4 75 8 11 4 40 4 65 0 25 -4 53 -8
61 -9z m-5065 -24 c3 -12 34 -156 69 -321 35 -165 79 -364 97 -443 27 -121 30
-145 18 -152 -7 -5 -66 -21 -129 -35 -63 -15 -122 -28 -130 -31 -12 -3 -20 21
-38 114 -25 126 -169 807 -177 832 -13 42 46 58 208 57 70 -1 78 -3 82 -21z"/>
<path d="M3780 6111 c-290 -65 -533 -268 -667 -559 -240 -519 68 -1137 646
-1294 111 -30 343 -30 456 0 98 27 248 98 329 156 85 61 203 187 259 278 57
91 110 233 127 341 16 94 8 287 -14 367 -19 68 -20 62 4 88 20 21 29 22 189
22 153 0 169 -2 185 -19 17 -19 17 -23 -1 -98 -26 -113 -23 -328 6 -438 44
-167 134 -317 262 -441 167 -160 355 -249 584 -275 452 -53 885 239 1022 688
23 78 26 106 27 238 1 115 -3 165 -17 215 -99 360 -363 630 -705 722 -110 29
-312 36 -423 13 -168 -34 -329 -114 -454 -225 -38 -34 -88 -74 -109 -89 l-40
-26 -325 0 c-246 0 -335 3 -364 13 -20 8 -78 49 -128 91 -137 118 -257 183
-415 227 -93 26 -328 28 -434 5z m404 -126 c249 -66 442 -226 551 -456 98
-206 109 -403 36 -616 -101 -294 -390 -520 -708 -553 -378 -39 -744 202 -865
570 -39 121 -50 302 -24 414 80 342 327 585 661 652 87 17 266 11 349 -11z
m2176 15 c267 -43 493 -204 614 -439 82 -160 112 -304 95 -462 -33 -321 -252
-592 -569 -703 -74 -26 -102 -30 -220 -34 -155 -4 -235 9 -354 58 -246 103
-427 300 -497 542 -30 105 -37 279 -15 389 86 426 511 717 946 649z"/>
<path d="M3852 5740 c-160 -43 -285 -142 -360 -288 -56 -107 -76 -194 -69
-302 13 -203 137 -387 319 -474 92 -43 155 -56 271 -56 207 0 362 78 471 237
184 270 109 634 -168 815 -123 80 -316 108 -464 68z m288 -219 c79 -30 152
-98 192 -179 30 -60 33 -75 33 -157 0 -82 -3 -97 -32 -156 -39 -79 -102 -140
-181 -177 -49 -23 -70 -27 -147 -27 -78 0 -97 4 -147 28 -73 36 -139 100 -174
168 -39 76 -46 208 -15 289 42 111 119 185 230 222 69 23 162 18 241 -11z"/>
<path d="M3912 5359 c-111 -55 -135 -208 -49 -306 39 -44 82 -63 142 -63 60 0
103 19 142 63 142 162 -41 402 -235 306z m171 -109 c21 -23 27 -40 27 -74 0
-38 -5 -48 -35 -75 -101 -88 -235 33 -159 144 38 54 120 57 167 5z"/>
<path d="M5694 5737 c-12 -7 -14 -81 -14 -477 0 -411 -2 -470 -15 -470 -11 0
-15 -13 -15 -54 0 -52 1 -54 31 -60 17 -3 296 -6 620 -6 l589 0 0 23 c0 12 -3
39 -6 60 -6 31 -11 37 -30 37 l-24 0 0 464 c0 359 -3 466 -13 474 -15 12
-1101 21 -1123 9z m1026 -487 l0 -380 -460 0 -460 0 0 380 0 380 460 0 460 0
0 -380z"/>
<path d="M5862 5253 l3 -318 397 -3 397 -2 3 320 3 320 -403 0 -402 0 2 -317z"/>
<path d="M4726 4057 c-34 -34 -36 -95 -5 -123 24 -22 85 -25 122 -5 22 12 31
9 107 -35 75 -44 91 -49 156 -52 72 -4 75 -3 168 47 l95 50 37 -15 c89 -37
164 30 122 109 -35 66 -93 64 -220 -8 -128 -72 -183 -90 -234 -76 -22 6 -84
36 -138 67 -121 70 -172 79 -210 41z"/>
<path d="M3164 3988 c-20 -39 -15 -106 22 -283 50 -236 148 -489 262 -672 57
-93 156 -226 216 -291 l40 -44 4 -243 4 -243 -41 -40 c-53 -51 -87 -126 -206
-457 -109 -303 -137 -365 -189 -414 -42 -40 -45 -67 -20 -152 34 -114 114
-243 246 -395 99 -115 303 -293 419 -366 20 -13 32 -36 48 -87 43 -143 110
-192 231 -171 184 32 368 134 580 321 l92 81 29 -28 c16 -15 29 -33 29 -38 0
-18 -154 -326 -198 -398 l-42 -68 69 0 c82 0 77 -6 166 168 68 131 115 182
169 182 47 0 74 -29 193 -205 l97 -145 68 0 c37 0 68 3 68 6 0 3 -26 43 -58
87 -32 45 -100 143 -150 218 -51 75 -99 142 -107 149 -19 16 -19 34 -1 49 11
10 27 2 80 -40 284 -227 503 -329 702 -329 53 0 58 2 112 53 31 30 93 78 137
107 293 195 522 395 637 556 67 94 148 247 173 326 l18 56 -46 74 c-26 40 -73
133 -106 205 -115 255 -213 414 -333 539 l-79 82 7 273 7 274 57 75 c238 315
392 634 490 1013 16 65 30 135 30 155 0 41 -23 82 -45 82 -22 0 -38 -39 -116
-276 -112 -342 -178 -485 -334 -724 -190 -291 -395 -500 -670 -685 -432 -290
-835 -349 -1253 -184 -203 81 -568 338 -806 569 -308 299 -458 574 -576 1064
-58 237 -88 288 -126 214z m911 -1612 c356 -268 570 -377 822 -420 294 -50
530 -20 814 105 210 91 547 328 652 457 39 47 38 67 21 -444 l-6 -170 -121
-91 c-332 -248 -665 -424 -1013 -537 -162 -52 -189 -55 -222 -24 -47 44 -75
57 -243 112 -236 77 -452 180 -674 319 -80 51 -261 182 -269 195 -2 4 -7 167
-11 362 l-8 354 74 -68 c41 -37 124 -105 184 -150z m-285 -609 c129 -118 417
-294 659 -402 66 -30 211 -83 323 -119 151 -49 210 -72 228 -91 21 -22 31 -25
101 -25 242 0 870 298 1228 582 60 48 117 98 126 112 9 14 21 55 25 91 5 37
10 68 12 70 11 11 235 -373 353 -604 27 -51 60 -107 74 -123 l25 -31 -47 -91
c-141 -278 -309 -445 -630 -630 -54 -31 -99 -56 -100 -56 -1 0 -2 116 -3 258
-1 339 -18 453 -81 520 -33 34 -33 35 -102 30 -97 -7 -171 -45 -431 -219 -118
-79 -238 -155 -266 -167 l-50 -24 -38 26 c-87 59 -262 54 -321 -10 l-21 -23
-50 35 c-94 68 -347 227 -429 270 -110 59 -186 84 -254 84 -147 0 -184 -98
-185 -492 -1 -142 -4 -214 -11 -209 -262 193 -496 468 -555 654 -11 36 -10 38
28 82 47 53 61 85 186 430 52 143 103 278 113 300 l17 40 7 -105 7 -105 62
-58z"/>
<path d="M6560 3778 c-181 -154 -245 -183 -378 -176 -94 6 -187 34 -482 143
-142 53 -162 58 -240 59 -77 1 -92 -2 -151 -31 -41 -21 -85 -53 -118 -88 -29
-30 -54 -55 -57 -55 -2 0 -33 24 -67 53 -34 29 -78 62 -97 74 -78 47 -193 64
-289 42 -24 -5 -128 -43 -231 -85 -104 -41 -219 -81 -257 -89 -177 -38 -302
-3 -492 134 -46 34 -90 61 -96 61 -7 0 -19 -7 -26 -16 -23 -28 10 -187 62
-291 59 -121 189 -253 299 -306 127 -61 183 -72 370 -72 185 0 246 11 409 72
90 33 99 35 180 29 48 -3 127 -9 176 -12 65 -5 120 -2 191 10 74 13 107 14
128 7 15 -6 40 -11 56 -11 16 0 75 -16 132 -35 347 -116 652 -77 854 108 112
103 184 227 210 366 15 78 11 133 -11 151 -10 8 -28 -2 -75 -42z m-1314 -386
c19 -15 34 -30 34 -34 0 -22 -190 -35 -288 -20 l-44 7 54 46 c30 26 69 69 88
96 l34 50 44 -59 c25 -33 60 -71 78 -86z"/>
<path d="M4750 3055 c-18 -22 15 -55 110 -111 223 -132 445 -110 610 60 31 33
33 38 18 52 -14 14 -22 13 -89 -16 -202 -86 -381 -79 -620 24 -9 4 -21 0 -29
-9z"/>
</g>
</svg>
